Coordinates
version=1
nRows=17
nColumns=36
inDegrees=yes

Units are S.I. units (second, meters, Newtons, ...)
If the header above contains a line with 'inDegrees', this indicates whether rotational values are in degrees (yes) or radians (no).

endheader
time	pelvis_tilt	pelvis_list	pelvis_rotation	pelvis_tx	pelvis_ty	pelvis_tz	hip_flexion_r	hip_adduction_r	hip_rotation_r	knee_angle_r	knee_angle_r_beta	ankle_angle_r	subtalar_angle_r	mtp_angle_r	hip_flexion_l	hip_adduction_l	hip_rotation_l	knee_angle_l	knee_angle_l_beta	ankle_angle_l	subtalar_angle_l	mtp_angle_l	lumbar_extension	lumbar_bending	lumbar_rotation	arm_flex_r	arm_add_r	arm_rot_r	elbow_flex_r	pro_sup_r	arm_flex_l	arm_add_l	arm_rot_l	elbow_flex_l	pro_sup_l
      0.00000000	     -2.06417224	      5.41732158	      7.16429264	     -0.21903238	      0.99971228	     -0.21786994	     27.72893905	     -5.39791085	    -15.78031005	      0.48895804	      0.00853393	     -1.97677328	     13.53190053	     -4.39996443	    -14.43096313	      8.16533722	      1.05615938	      7.14978394	      0.12478727	     18.01078718	     14.31425703	     -4.39996443	    -13.25494186	     -7.86225261	    -14.71672532	    -16.65882019	     -1.26680573	    -11.07573154	     38.58887184	    110.64582200	     17.53140727	    -25.05055480	    -13.12610140	     63.77749894	     99.16818866
      0.01000000	     -1.99829216	      4.91457276	      7.35921583	     -0.20342587	      0.99920835	     -0.21714531	     27.08274836	     -4.69768865	    -15.61308885	      0.46374950	      0.00809396	     -3.82328054	     12.76223807	     -4.42670159	    -14.77048367	      7.36482960	      1.00415733	      8.18496759	      0.14285463	     17.55223245	     13.94920220	     -4.42670159	    -13.02902950	     -7.34822040	    -14.48302349	    -16.73804755	     -1.28826662	    -11.14483648	     38.10666128	    110.54636880	     17.44845356	    -24.84975925	    -13.17733139	     64.17129955	     99.21735177
      0.02000000	     -2.12897200	      4.49887435	      7.33361159	     -0.18783936	      0.99849447	     -0.21598797	     26.67797758	     -3.91621185	    -14.29010316	      0.41622186	      0.00726444	     -6.51324683	      9.42503262	     -4.58670298	    -14.80324637	      6.71022000	      0.55857606	      9.40510721	      0.16415009	     17.25337287	     13.95899560	     -4.58670298	    -12.56068531	     -7.01189101	    -14.40981338	    -16.54885381	     -1.38722404	    -10.94250997	     37.31908738	    110.37151683	     16.77600692	    -24.72882652	    -13.85174295	     64.88216022	     99.43465939
      0.03000000	     -2.01046845	      3.99138650	      7.47061489	     -0.17193723	      0.99852666	     -0.21505132	     25.95622567	     -3.18682722	    -14.13403654	      0.41553358	      0.00725243	     -8.46659379	      8.28652338	     -4.63128483	    -15.02463633	      5.90580488	      0.43660486	     10.72885768	      0.18725389	     16.53984387	     13.43831805	     -4.63128483	    -12.37216784	     -6.50892127	    -14.21007567	    -16.50124633	     -1.43762357	    -11.03701114	     36.76333331	    110.26550860	     16.39117063	    -24.51449715	    -14.01800838	     65.30050467	     99.50448785
      0.04000000	     -2.05521608	      3.49137657	      7.60080985	     -0.15597278	      0.99877459	     -0.21389467	     25.35270437	     -2.45496478	    -13.32974733	      0.40959891	      0.00714885	    -10.49819221	      6.19476173	     -4.70310007	    -14.90599579	      5.14304095	      0.39991160	     12.31982156	      0.21502145	     15.66646101	     12.79384671	     -4.70310007	    -12.02134507	     -6.08849446	    -14.14596469	    -16.37553320	     -1.45118772	    -11.04846641	     36.10752515	    110.16873257	     15.64279020	    -24.27870064	    -14.55055767	     65.93795622	     99.60609663
      0.05000000	     -1.93614014	      2.95020035	      7.76006167	     -0.13982507	      0.99974386	     -0.21268146	     24.53334759	     -1.72728421	    -13.07514883	      0.44519002	      0.00777003	    -11.83289337	      5.13587276	     -4.74747171	    -14.69614934	      4.30271446	      0.25946492	     14.34073977	      0.25029313	     14.43908155	     11.87372164	     -4.74747171	    -11.85870271	     -5.61582293	    -13.97040900	    -16.29364524	     -1.49172906	    -11.04494666	     35.62350971	    110.08585512	     14.95280727	    -23.95509282	    -14.84708264	     66.41697549	     99.65680165
      0.06000000	     -1.97210276	      2.42917739	      7.87481866	     -0.12379988	      1.00101699	     -0.21127517	     23.84109865	     -1.00439078	    -12.24609099	      0.47827733	      0.00834751	    -13.33391774	      3.15608299	     -4.86754848	    -14.08200724	      3.54365350	      0.29961214	     16.71996187	      0.29181839	     12.94694755	     10.59795223	     -4.86754848	    -11.55939817	     -5.23515284	    -14.04860624	    -15.95726484	     -1.59184400	    -10.75808524	     34.93148054	    109.98973117	     13.74951675	    -23.60143835	    -15.77857363	     67.26617164	     99.71029421
      0.07000000	     -1.84851586	      1.79123737	      7.97745515	     -0.10778584	      1.00291419	     -0.20975645	     22.97446843	     -0.17853768	    -11.87093437	      0.56683210	      0.00989309	    -14.20881870	      2.07635954	     -4.98302927	    -13.32138075	      2.61537055	      0.13205193	     19.55936865	      0.34137538	     11.14488140	      9.19475118	     -4.98302927	    -11.44087267	     -4.71877771	    -13.89407080	    -15.70055189	     -1.67357219	    -10.57605199	     34.41273883	    109.89000460	     12.70573227	    -23.16099181	    -16.33111810	     67.83194787	     99.69020421
      0.08000000	     -1.54631803	      1.07668747	      8.02662961	     -0.09184178	      1.00535603	     -0.20812993	     21.91453065	      0.74580600	    -11.78924150	      0.70886333	      0.01237200	    -14.37214658	      1.70531839	     -5.01498538	    -12.45610482	      1.54347463	     -0.28177350	     22.81051353	      0.39811857	      9.11587824	      7.96806632	     -5.01498538	    -11.54101154	     -4.11868487	    -13.40841101	    -15.57120672	     -1.72017297	    -10.62005525	     34.17184522	    109.71770996	     11.94877000	    -22.65606773	    -16.41070517	     68.05920844	     99.62028465
      0.09000000	     -1.15836106	      0.46100594	      8.08988881	     -0.07653801	      1.00821770	     -0.20644200	     20.79852699	      1.56124150	    -11.42120215	      0.99289301	      0.01732925	    -14.25886394	      1.44709566	     -5.03754212	    -11.42361937	      0.58762564	     -0.29843368	     26.38589847	      0.46052080	      6.87685433	      6.96158255	     -5.03754212	    -11.86314725	     -3.64011114	    -12.86955066	    -15.35233379	     -1.69235800	    -10.63875585	     34.03509280	    109.53533622	     11.31826711	    -22.06834439	    -16.50065398	     68.29759940	     99.53398703
      0.10000000	     -1.40922369	     -0.39159786	      7.93424520	     -0.06157221	      1.01031892	     -0.20443681	     20.46606326	      2.65575286	    -10.88072525	      1.31939815	      0.02302784	    -14.41300433	      0.07073667	     -5.15080586	     -9.32291070	     -0.50599973	     -0.79056800	     30.45457537	      0.53153261	      3.67159643	      4.10609130	     -5.15080586	    -11.41218279	     -3.03272498	    -12.57477816	    -14.89865323	     -1.85278066	    -10.58136374	     33.77310947	    109.51757155	      9.88168346	    -21.47169611	    -17.33382516	     68.86833521	     99.26573747
      0.11000000	     -1.31467460	     -1.16718030	      7.85474696	     -0.04709245	      1.01291758	     -0.20259384	     19.78210060	      3.64384204	    -10.74079023	      1.76861806	      0.03086821	    -13.77211859	     -0.00737395	     -5.21984131	     -7.41388618	     -1.62310278	     -1.06449049	     34.65446690	      0.60483455	      0.60034561	      2.31665454	     -5.21984131	    -11.44605935	     -2.45643370	    -11.93657299	    -14.62494487	     -1.97252573	    -10.50387348	     33.88887474	    109.49651924	      9.03966886	    -20.79053306	    -17.49001800	     69.04832870	     99.07197341
      0.12000000	     -1.25970315	     -1.87359470	      7.77034448	     -0.03315504	      1.01544389	     -0.20080737	     19.14552236	      4.56018373	    -10.75062410	      2.20525114	      0.03848889	    -12.92983232	      0.03712958	     -5.29669437	     -5.29571023	     -2.62066942	     -1.12970123	     38.92718792	      0.67940760	     -2.74083837	      0.30786749	     -5.29669437	    -11.52146370	     -1.97137206	    -11.27497210	    -14.30577694	     -2.10213990	    -10.47860672	     34.16471261	    109.50545551	      8.25503931	    -20.11458134	    -17.59966667	     69.16635196	     98.83397477
      0.13000000	     -0.92770202	     -2.56621055	      7.71743939	     -0.01941040	      1.01821425	     -0.19894818	     18.08291904	      5.53746002	    -10.80804899	      2.37334032	      0.04142260	    -12.02097384	      0.19583931	     -5.32154413	     -3.41017795	     -3.70333624	     -1.13992861	     43.09467581	      0.75214398	     -5.42493269	     -0.54625395	     -5.32154413	    -11.94878266	     -1.50419356	    -10.49423075	    -13.97272770	     -2.20739505	    -10.40884316	     34.44533393	    109.40412425	      7.62255974	    -19.44444979	    -17.52688491	     69.22135338	     98.71791531
      0.14000000	     -1.24432012	     -3.13572716	      7.70062567	     -0.00645796	      1.01998269	     -0.19742121	     17.83875561	      6.22781837	    -11.17517711	      2.72000810	      0.04747310	    -11.22617466	      0.66230605	     -5.38188663	     -0.63433857	     -4.39899950	     -0.81677251	     47.30450196	      0.82561931	     -8.45924679	     -2.99540817	     -5.38188663	    -11.68540937	     -1.22556391	     -9.90479826	    -13.77075395	     -2.39025249	    -10.36957365	     35.25695181	    109.45840025	      6.83531360	    -18.78000820	    -17.53960993	     69.12122756	     98.48055881
      0.15000000	     -1.24850034	     -3.62049975	      7.73801257	      0.00638758	      1.02202811	     -0.19596845	     17.09316476	      6.90903475	    -11.59745175	      2.74156893	      0.04784940	    -10.40894544	      1.19748940	     -5.43544439	      1.76294844	     -5.04270564	     -0.41568276	     51.18977241	      0.89343007	    -10.34033954	     -4.29240047	     -5.43544439	    -11.81059554	     -1.01680202	     -9.28902608	    -13.46783740	     -2.57356572	    -10.29101066	     35.93569349	    109.52442089	      6.15668074	    -18.11970437	    -17.42654809	     68.99476541	     98.27942499
      0.16000000	     -1.22054935	     -4.02893290	      7.80088478	      0.01904856	      1.02398782	     -0.19454126	     16.21520031	      7.54260895	    -12.03321262	      2.54855684	      0.04448071	     -9.66757563	      1.73069055	     -5.47005320	      4.10571503	     -5.56073218	      0.07419439	     54.78564325	      0.95618986	    -11.15134924	     -5.14238053	     -5.47005320	    -11.98942490	     -0.90807296	     -8.70049086	    -13.13475359	     -2.77802936	    -10.15591765	     36.61229590	    109.55153352	      5.45849640	    -17.50271615	    -17.29654941	     68.78277748	     98.13068897
